<svg width="32" height="32" viewBox="0 0 32 32" fill="none" xmlns="http://www.w3.org/2000/svg">
  <rect width="32" height="32" rx="6" fill="url(#gradient)"/>
  <path d="M16 8c-2.5 0-4.5 1.5-5.5 3.5C9.5 13 9 14.5 9 16c0 3.9 3.1 7 7 7s7-3.1 7-7c0-1.5-.5-3-1.5-4.5C20.5 9.5 18.5 8 16 8zm0 2c1.7 0 3.2 1 4 2.5.8 1.2 1 2.5 1 3.5 0 2.8-2.2 5-5 5s-5-2.2-5-5c0-1 .2-2.3 1-3.5.8-1.5 2.3-2.5 4-2.5z" fill="white"/>
  <circle cx="16" cy="16" r="2" fill="white"/>
  <defs>
    <linearGradient id="gradient" x1="0" y1="0" x2="32" y2="32">
      <stop offset="0%" stop-color="#3B82F6"/>
      <stop offset="100%" stop-color="#9333EA"/>
    </linearGradient>
  </defs>
</svg>
